<svg width="18" height="20" viewBox="0 0 18 20" fill="none" xmlns="http://www.w3.org/2000/svg">
<path d="M14.6978 2.46793L14.686 2.45559C13.1758 0.87207 11.1574 0 9.00249 0C6.84441 0 4.8221 0.874258 3.30816 2.46176C0.192218 5.72898 0.189601 11.0424 3.30226 14.3062L8.54773 19.8064C8.66569 19.9301 8.82913 20 9.00003 20C9.17093 20 9.33437 19.9301 9.45234 19.8064L14.6919 14.3124C17.8078 11.0452 17.8105 5.73176 14.6978 2.46793ZM13.7873 13.4497L9.00003 18.4694L4.20683 13.4435C1.5478 10.6554 1.55046 6.11598 4.21273 3.32441C5.48851 1.98672 7.18956 1.25 9.00249 1.25C10.8123 1.25 12.5094 1.98453 13.7814 3.31824L13.7932 3.33059C16.4523 6.11875 16.4496 10.6582 13.7873 13.4497ZM9.00003 4.36609C6.78152 4.36609 4.97659 6.17102 4.97659 8.38953C4.97659 10.608 6.78152 12.413 9.00003 12.413C11.2185 12.413 13.0235 10.608 13.0235 8.38953C13.0235 6.17102 11.2186 4.36609 9.00003 4.36609ZM9.00003 11.163C7.47073 11.163 6.22659 9.91879 6.22659 8.38953C6.22659 6.86027 7.47077 5.61609 9.00003 5.61609C10.5293 5.61609 11.7735 6.86027 11.7735 8.38953C11.7735 9.91883 10.5293 11.163 9.00003 11.163Z" fill="#ED145B"/>
</svg>
